<svg width="1917" height="112" viewBox="0 0 1917 112" fill="none" xmlns="http://www.w3.org/2000/svg">
<path d="M1403.78 76.2514L1442.55 37.4845C1459.17 20.8641 1485.56 19.9626 1503.23 34.7801L1464.47 73.547C1447.85 90.1674 1421.46 91.0689 1403.78 76.2514Z" stroke="#B2D0C6" stroke-width="8"/>
<path d="M1520.78 76.2435L1559.55 37.4767C1576.17 20.8562 1602.56 19.9548 1620.23 34.7722L1581.47 73.5391C1564.85 90.1595 1538.46 91.061 1520.78 76.2435Z" stroke="#B2D0C6" stroke-width="8"/>
<path d="M1461.78 76.2514L1500.55 37.4845C1517.17 20.8641 1543.56 19.9626 1561.23 34.7801L1522.47 73.547C1505.85 90.1674 1479.46 91.0689 1461.78 76.2514Z" stroke="#B2D0C6" stroke-width="8"/>
<path d="M1578.78 76.2435L1617.55 37.4767C1634.17 20.8562 1660.56 19.9548 1678.23 34.7722L1639.47 73.5391C1622.85 90.1595 1596.46 91.061 1578.78 76.2435Z" stroke="#B2D0C6" stroke-width="8"/>
<path d="M937.781 76.2593L976.548 37.4924C993.168 20.872 1019.56 19.9705 1037.23 34.788L998.468 73.5549C981.848 90.1753 955.461 91.0767 937.781 76.2593Z" stroke="#B2D0C6" stroke-width="8"/>
<path d="M1054.78 76.2514L1093.55 37.4845C1110.17 20.8641 1136.56 19.9626 1154.23 34.7801L1115.47 73.547C1098.85 90.1674 1072.46 91.0689 1054.78 76.2514Z" stroke="#B2D0C6" stroke-width="8"/>
<path d="M995.781 76.2593L1034.55 37.4924C1051.17 20.872 1077.56 19.9705 1095.23 34.788L1056.47 73.5549C1039.85 90.1753 1013.46 91.0767 995.781 76.2593Z" stroke="#B2D0C6" stroke-width="8"/>
<path d="M1112.78 76.2514L1151.55 37.4845C1168.17 20.8641 1194.56 19.9626 1212.23 34.7801L1173.47 73.547C1156.85 90.1674 1130.46 91.0689 1112.78 76.2514Z" stroke="#B2D0C6" stroke-width="8"/>
<path d="M1636.78 76.2593L1675.55 37.4924C1692.17 20.872 1718.56 19.9705 1736.23 34.788L1697.47 73.5549C1680.85 90.1753 1654.46 91.0767 1636.78 76.2593Z" stroke="#B2D0C6" stroke-width="8"/>
<path d="M1753.78 76.2514L1792.55 37.4845C1809.17 20.8641 1835.56 19.9626 1853.23 34.7801L1814.47 73.547C1797.85 90.1674 1771.46 91.0689 1753.78 76.2514Z" stroke="#B2D0C6" stroke-width="8"/>
<path d="M1694.78 76.2593L1733.55 37.4924C1750.17 20.872 1776.56 19.9705 1794.23 34.788L1755.47 73.5549C1738.85 90.1753 1712.46 91.0767 1694.78 76.2593Z" stroke="#B2D0C6" stroke-width="8"/>
<path d="M1811.78 76.2514L1850.55 37.4845C1867.17 20.8641 1893.56 19.9626 1911.23 34.7801L1872.47 73.547C1855.85 90.1674 1829.46 91.0689 1811.78 76.2514Z" stroke="#B2D0C6" stroke-width="8"/>
<path d="M1170.78 76.2672L1209.55 37.5003C1226.17 20.8799 1252.56 19.9784 1270.23 34.7958L1231.47 73.5627C1214.85 90.1831 1188.46 91.0846 1170.78 76.2672Z" stroke="#B2D0C6" stroke-width="8"/>
<path d="M1287.78 76.2593L1326.55 37.4924C1343.17 20.872 1369.56 19.9705 1387.23 34.788L1348.47 73.5549C1331.85 90.1753 1305.46 91.0767 1287.78 76.2593Z" stroke="#B2D0C6" stroke-width="8"/>
<path d="M1228.78 76.2672L1267.55 37.5003C1284.17 20.8799 1310.56 19.9784 1328.23 34.7958L1289.47 73.5627C1272.85 90.1831 1246.46 91.0846 1228.78 76.2672Z" stroke="#B2D0C6" stroke-width="8"/>
<path d="M1345.78 76.2593L1384.55 37.4924C1401.17 20.872 1427.56 19.9705 1445.23 34.788L1406.47 73.5549C1389.85 90.1753 1363.46 91.0767 1345.78 76.2593Z" stroke="#B2D0C6" stroke-width="8"/>
<path d="M471.781 76.2514L510.548 37.4845C527.168 20.8641 553.555 19.9626 571.235 34.7801L532.468 73.547C515.848 90.1674 489.461 91.0689 471.781 76.2514Z" stroke="#B2D0C6" stroke-width="8"/>
<path d="M588.781 76.2435L627.548 37.4767C644.168 20.8562 670.555 19.9548 688.235 34.7722L649.468 73.5391C632.848 90.1595 606.461 91.061 588.781 76.2435Z" stroke="#B2D0C6" stroke-width="8"/>
<path d="M529.781 76.2514L568.548 37.4845C585.168 20.8641 611.555 19.9626 629.235 34.7801L590.468 73.547C573.848 90.1674 547.461 91.0689 529.781 76.2514Z" stroke="#B2D0C6" stroke-width="8"/>
<path d="M646.781 76.2435L685.548 37.4767C702.168 20.8562 728.555 19.9548 746.235 34.7722L707.468 73.5391C690.848 90.1595 664.461 91.061 646.781 76.2435Z" stroke="#B2D0C6" stroke-width="8"/>
<path d="M5.78084 76.2593L44.5477 37.4924C61.1681 20.872 87.555 19.9705 105.235 34.788L66.468 73.5549C49.8476 90.1753 23.4607 91.0767 5.78084 76.2593Z" stroke="#B2D0C6" stroke-width="8"/>
<path d="M122.781 76.2514L161.548 37.4845C178.168 20.8641 204.555 19.9626 222.235 34.7801L183.468 73.547C166.848 90.1674 140.461 91.0689 122.781 76.2514Z" stroke="#B2D0C6" stroke-width="8"/>
<path d="M63.7808 76.2593L102.548 37.4924C119.168 20.872 145.555 19.9705 163.235 34.788L124.468 73.5549C107.848 90.1753 81.4607 91.0767 63.7808 76.2593Z" stroke="#B2D0C6" stroke-width="8"/>
<path d="M180.781 76.2514L219.548 37.4845C236.168 20.8641 262.555 19.9626 280.235 34.7801L241.468 73.547C224.848 90.1674 198.461 91.0689 180.781 76.2514Z" stroke="#B2D0C6" stroke-width="8"/>
<path d="M704.781 76.2593L743.548 37.4924C760.168 20.872 786.555 19.9705 804.235 34.788L765.468 73.5549C748.848 90.1753 722.461 91.0767 704.781 76.2593Z" stroke="#B2D0C6" stroke-width="8"/>
<path d="M821.781 76.2514L860.548 37.4845C877.168 20.8641 903.555 19.9626 921.235 34.7801L882.468 73.547C865.848 90.1674 839.461 91.0689 821.781 76.2514Z" stroke="#B2D0C6" stroke-width="8"/>
<path d="M762.781 76.2593L801.548 37.4924C818.168 20.872 844.555 19.9705 862.235 34.788L823.468 73.5549C806.848 90.1753 780.461 91.0767 762.781 76.2593Z" stroke="#B2D0C6" stroke-width="8"/>
<path d="M879.781 76.2514L918.548 37.4845C935.168 20.8641 961.555 19.9626 979.235 34.7801L940.468 73.547C923.848 90.1674 897.461 91.0689 879.781 76.2514Z" stroke="#B2D0C6" stroke-width="8"/>
<path d="M238.781 76.2672L277.548 37.5003C294.168 20.8799 320.555 19.9784 338.235 34.7958L299.468 73.5627C282.848 90.1831 256.461 91.0846 238.781 76.2672Z" stroke="#B2D0C6" stroke-width="8"/>
<path d="M355.781 76.2593L394.548 37.4924C411.168 20.872 437.555 19.9705 455.235 34.788L416.468 73.5549C399.848 90.1753 373.461 91.0767 355.781 76.2593Z" stroke="#B2D0C6" stroke-width="8"/>
<path d="M296.781 76.2672L335.548 37.5003C352.168 20.8799 378.555 19.9784 396.235 34.7958L357.468 73.5627C340.848 90.1831 314.461 91.0846 296.781 76.2672Z" stroke="#B2D0C6" stroke-width="8"/>
<path d="M413.781 76.2593L452.548 37.4924C469.168 20.872 495.555 19.9705 513.235 34.788L474.468 73.5549C457.848 90.1753 431.461 91.0767 413.781 76.2593Z" stroke="#B2D0C6" stroke-width="8"/>
</svg>
