<svg width="42" height="42" viewBox="0 0 42 42" fill="none" xmlns="http://www.w3.org/2000/svg">
<g clip-path="url(#clip0_22_27)">
<path d="M39.2 21C39.2 23.3901 38.7292 25.7567 37.8146 27.9648C36.9 30.173 35.5594 32.1793 33.8693 33.8693C32.1793 35.5594 30.173 36.9 27.9648 37.8146C25.7567 38.7292 23.3901 39.2 21 39.2V42C26.5695 42 31.911 39.7875 35.8492 35.8492C39.7875 31.911 42 26.5695 42 21H39.2ZM21 39.2C16.1731 39.2 11.5438 37.2825 8.13066 33.8693C4.71749 30.4562 2.8 25.8269 2.8 21H0C0 26.5695 2.21249 31.911 6.15076 35.8492C10.089 39.7875 15.4305 42 21 42V39.2ZM2.8 21C2.8 16.1731 4.71749 11.5438 8.13066 8.13066C11.5438 4.71749 16.1731 2.8 21 2.8V0C15.4305 0 10.089 2.21249 6.15076 6.15076C2.21249 10.089 0 15.4305 0 21H2.8ZM21 2.8C23.3901 2.8 25.7567 3.27076 27.9648 4.18539C30.173 5.10003 32.1793 6.44063 33.8693 8.13066C35.5594 9.82068 36.9 11.827 37.8146 14.0352C38.7292 16.2433 39.2 18.6099 39.2 21H42C42 15.4305 39.7875 10.089 35.8492 6.15076C31.911 2.21249 26.5695 0 21 0V2.8ZM10.2536 28.3248C13.0144 27.6528 16.4136 27.3588 19.7512 27.6864C23.1 28.014 26.2864 28.9576 28.7168 30.6684L30.3268 28.3752C27.3784 26.3032 23.6768 25.2588 20.0256 24.9004C16.5319 24.5626 13.0064 24.8009 9.59 25.606L10.2536 28.3248ZM9.3128 22.3776C18.9616 20.6696 25.6872 21.546 31.262 25.5472L32.8944 23.2708C26.46 18.6508 18.8496 17.8472 8.8256 19.6224L9.3128 22.3776ZM8.6828 16.3548C12.4712 15.0164 17.0912 14.462 21.63 14.8316C26.1744 15.204 30.534 16.4976 33.8492 18.7516L35.42 16.4332C31.6008 13.8376 26.7428 12.4404 21.8596 12.0428C16.9708 11.6424 11.9504 12.2304 7.7504 13.7144L8.6828 16.3548Z" fill="#00A8A8"/>
</g>
<defs>
<clipPath id="clip0_22_27">
<rect width="42" height="42" fill="white"/>
</clipPath>
</defs>
</svg>
