<svg width="52" height="52" viewBox="0 0 52 52" fill="none" xmlns="http://www.w3.org/2000/svg">
<path d="M41.2101 10.7792C38.2006 7.77096 34.3666 5.72272 30.193 4.89347C26.0193 4.06422 21.6935 4.49119 17.7626 6.12039C13.8316 7.74959 10.4721 10.5079 8.10869 14.0464C5.74532 17.5849 4.48431 21.7448 4.48511 26C4.48511 31.7071 6.75151 37.1807 10.786 41.2172C14.8206 45.2538 20.293 47.523 26.0001 47.5258C28.8243 47.527 31.6215 46.975 34.2334 45.9008C36.8371 44.8018 39.2056 43.213 41.2101 41.2208C43.2092 39.2221 44.7949 36.8492 45.8768 34.2376C46.9587 31.626 47.5155 28.8268 47.5155 26C47.5155 23.1732 46.9587 20.374 45.8768 17.7624C44.7949 15.1508 43.2092 12.7779 41.2101 10.7792ZM39.6934 39.6825C36.5952 42.794 32.5299 44.7579 28.1668 45.2508V31.0375H32.2401C32.8147 31.0375 33.3658 30.8092 33.7722 30.4029C34.1785 29.9966 34.4068 29.4455 34.4068 28.8708C34.4068 28.2962 34.1785 27.7451 33.7722 27.3388C33.3658 26.9324 32.8147 26.7042 32.2401 26.7042H28.1668V20.7675C28.1668 20.1929 28.3951 19.6418 28.8014 19.2354C29.2077 18.8291 29.7588 18.6008 30.3334 18.6008H32.9334C33.5081 18.6008 34.0592 18.3726 34.4655 17.9662C34.8718 17.5599 35.1001 17.0088 35.1001 16.4342C35.1001 15.8595 34.8718 15.3084 34.4655 14.9021C34.0592 14.4958 33.5081 14.2675 32.9334 14.2675H29.2501C27.8135 14.2675 26.4358 14.8382 25.4199 15.854C24.4041 16.8698 23.8334 18.2476 23.8334 19.6842V26.7042H19.7818C19.2071 26.7042 18.656 26.9324 18.2497 27.3388C17.8434 27.7451 17.6151 28.2962 17.6151 28.8708C17.6151 29.4455 17.8434 29.9966 18.2497 30.4029C18.656 30.8092 19.2071 31.0375 19.7818 31.0375H23.8334V45.2508C19.8097 44.7918 16.0319 43.0802 13.0336 40.3578C10.0353 37.6354 7.96805 34.0398 7.12389 30.0789C6.27973 26.1181 6.7013 21.9921 8.32906 18.2838C9.95682 14.5754 12.7085 11.4722 16.1954 9.41247C19.6823 7.35271 23.7282 6.44049 27.7617 6.80467C31.7951 7.16885 35.6122 8.79102 38.6737 11.442C41.7353 14.0931 43.8866 17.639 44.8238 21.5789C45.7611 25.5188 45.4368 29.6535 43.8968 33.3992C42.916 35.7461 41.4884 37.8801 39.6934 39.6825Z" fill="#0C6980"/>
</svg>
