<svg width="49" height="49" viewBox="0 0 49 49" fill="none" xmlns="http://www.w3.org/2000/svg">
<path d="M15.9249 4.08325H33.0749C39.6082 4.08325 44.9166 9.39159 44.9166 15.9249V33.0749C44.9166 36.2155 43.669 39.2275 41.4482 41.4482C39.2275 43.669 36.2155 44.9166 33.0749 44.9166H15.9249C9.39159 44.9166 4.08325 39.6082 4.08325 33.0749V15.9249C4.08325 12.7843 5.33085 9.77234 7.5516 7.5516C9.77234 5.33085 12.7843 4.08325 15.9249 4.08325ZM15.5166 8.16658C13.5672 8.16658 11.6977 8.94096 10.3194 10.3194C8.94096 11.6977 8.16658 13.5672 8.16658 15.5166V33.4832C8.16658 37.5462 11.4537 40.8332 15.5166 40.8332H33.4832C35.4326 40.8332 37.3021 40.0589 38.6805 38.6805C40.0589 37.3021 40.8332 35.4326 40.8332 33.4832V15.5166C40.8332 11.4537 37.5462 8.16658 33.4832 8.16658H15.5166ZM35.2187 11.2291C35.8955 11.2291 36.5447 11.498 37.0233 11.9766C37.5019 12.4552 37.7707 13.1043 37.7707 13.7812C37.7707 14.458 37.5019 15.1072 37.0233 15.5858C36.5447 16.0644 35.8955 16.3333 35.2187 16.3333C34.5418 16.3333 33.8927 16.0644 33.4141 15.5858C32.9355 15.1072 32.6666 14.458 32.6666 13.7812C32.6666 13.1043 32.9355 12.4552 33.4141 11.9766C33.8927 11.498 34.5418 11.2291 35.2187 11.2291ZM24.4999 14.2916C27.2073 14.2916 29.8039 15.3671 31.7183 17.2815C33.6327 19.196 34.7083 21.7925 34.7083 24.4999C34.7083 27.2073 33.6327 29.8039 31.7183 31.7183C29.8039 33.6327 27.2073 34.7083 24.4999 34.7083C21.7925 34.7083 19.196 33.6327 17.2815 31.7183C15.3671 29.8039 14.2916 27.2073 14.2916 24.4999C14.2916 21.7925 15.3671 19.196 17.2815 17.2815C19.196 15.3671 21.7925 14.2916 24.4999 14.2916ZM24.4999 18.3749C22.8755 18.3749 21.3175 19.0202 20.1689 20.1689C19.0202 21.3175 18.3749 22.8755 18.3749 24.4999C18.3749 26.1244 19.0202 27.6823 20.1689 28.8309C21.3175 29.9796 22.8755 30.6249 24.4999 30.6249C26.1244 30.6249 27.6823 29.9796 28.8309 28.8309C29.9796 27.6823 30.6249 26.1244 30.6249 24.4999C30.6249 22.8755 29.9796 21.3175 28.8309 20.1689C27.6823 19.0202 26.1244 18.3749 24.4999 18.3749Z" fill="#D56B37"/>
</svg>
